<svg height="512pt" viewBox="0 0 512 512" width="512pt" xmlns="http://www.w3.org/2000/svg"><path d="m512 256c0 141.386719-114.613281 256-256 256s-256-114.613281-256-256 114.613281-256 256-256 256 114.613281 256 256zm0 0" fill="#ffe955"/><path d="m512 256c0 141.378906-114.621094 256-256 256s-256-114.621094-256-256c0-46.21875 12.25-89.570312 33.679688-127 44.121093 77.070312 127.160156 129 222.320312 129s178.210938-51.929688 222.320312-129c21.429688 37.429688 33.679688 80.78125 33.679688 127zm0 0" fill="#ffd112"/><path d="m481.261719 377.699219v.011719c-43.292969 79.96875-127.941407 134.289062-225.261719 134.289062s-181.96875-54.320312-225.261719-134.289062v-.011719zm0 0" fill="#ff9f00"/><path d="m339.214844 104.535156v54.617188c0 12.898437-10.449219 23.351562-23.351563 23.351562h-33.527343c-6.171876 16.101563-21.753907 27.539063-40.019532 27.539063-5.003906 0-9.8125-.855469-14.28125-2.441407 11.832032-4.179687 21.273438-13.410156 25.738282-25.097656h-25.945313c-12.898437 0-23.351563-10.449218-23.351563-23.351562v-54.617188c0-12.898437 10.449219-23.351562 23.351563-23.351562h88.035156c10.152344 0 18.789063 6.472656 22.011719 15.527344.863281 2.445312 1.339844 5.078124 1.339844 7.824218zm0 0" fill="#d0f6ff"/><path d="m339.214844 104.535156v54.617188c0 12.898437-10.449219 23.351562-23.351563 23.351562h-33.527343v-56.152344c0-16.375 13.269531-29.640624 29.644531-29.640624h25.894531c.863281 2.445312 1.339844 5.078124 1.339844 7.824218zm0 0" fill="#8fc9f7"/><path d="m271.753906 81.1875v81.609375c0 24.746094-17.339844 44.804687-42.089844 44.804687h-1.625c11.832032-4.179687 21.269532-13.410156 25.738282-25.097656h-25.949219c-12.898437 0-23.347656-10.449218-23.347656-23.351562v-54.617188c0-12.898437 10.449219-23.351562 23.347656-23.351562h43.925781zm0 0" fill="#fff"/><g fill="#474f6f"><path d="m244.289062 136.582031c0 5.257813-4.265624 9.523438-9.523437 9.523438-5.261719 0-9.527344-4.265625-9.527344-9.523438 0-5.261719 4.265625-9.523437 9.527344-9.523437 5.257813 0 9.523437 4.261718 9.523437 9.523437zm0 0"/><path d="m269.011719 136.582031c0 5.257813-4.265625 9.523438-9.527344 9.523438-5.257813 0-9.523437-4.265625-9.523437-9.523438 0-5.261719 4.265624-9.523437 9.523437-9.523437 5.261719 0 9.527344 4.261718 9.527344 9.523437zm0 0"/><path d="m293.730469 136.582031c0 5.257813-4.261719 9.523438-9.523438 9.523438-5.257812 0-9.523437-4.265625-9.523437-9.523438 0-5.261719 4.265625-9.523437 9.523437-9.523437 5.261719 0 9.523438 4.261718 9.523438 9.523437zm0 0"/><path d="m318.453125 136.582031c0 5.257813-4.261719 9.523438-9.523437 9.523438-5.257813 0-9.523438-4.265625-9.523438-9.523438 0-5.261719 4.265625-9.523437 9.523438-9.523437 5.261718 0 9.523437 4.261718 9.523437 9.523437zm0 0"/></g><path d="m291.3125 129.082031v54.617188c0 12.898437 10.453125 23.351562 23.351562 23.351562h33.53125c6.167969 16.101563 21.753907 27.539063 40.015626 27.539063 5.007812 0 9.8125-.855469 14.28125-2.441406-11.832032-4.179688-21.269532-13.410157-25.738282-25.097657h25.949219c12.898437 0 23.351563-10.449219 23.351563-23.351562v-54.617188c0-12.898437-10.453126-23.351562-23.351563-23.351562h-88.039063c-12.898437 0-23.351562 10.453125-23.351562 23.351562zm0 0" fill="#fff"/><path d="m358.777344 105.730469v81.613281c0 24.746094 17.335937 44.804688 42.089844 44.804688h1.625c-11.832032-4.183594-21.269532-13.410157-25.738282-25.097657h25.945313c12.902343 0 23.351562-10.453125 23.351562-23.351562v-54.617188c0-12.898437-10.449219-23.351562-23.351562-23.351562zm0 0" fill="#d0f6ff"/><path d="m405.289062 161.128906c0 5.257813-4.261718 9.523438-9.523437 9.523438-5.257813 0-9.523437-4.265625-9.523437-9.523438 0-5.261718 4.265624-9.527344 9.523437-9.527344 5.261719 0 9.523437 4.265626 9.523437 9.527344zm0 0" fill="#474f6f"/><path d="m380.570312 161.128906c0 5.257813-4.265624 9.523438-9.523437 9.523438-5.261719 0-9.527344-4.265625-9.527344-9.523438 0-5.261718 4.265625-9.527344 9.527344-9.527344 5.257813 0 9.523437 4.265626 9.523437 9.527344zm0 0" fill="#474f6f"/><path d="m355.847656 161.128906c0 5.257813-4.265625 9.523438-9.523437 9.523438-5.261719 0-9.523438-4.265625-9.523438-9.523438 0-5.261718 4.261719-9.527344 9.523438-9.527344 5.257812 0 9.523437 4.265626 9.523437 9.527344zm0 0" fill="#474f6f"/><path d="m331.125 161.128906c0 5.257813-4.265625 9.523438-9.523438 9.523438-5.261718 0-9.523437-4.265625-9.523437-9.523438 0-5.261718 4.261719-9.527344 9.523437-9.527344 5.257813 0 9.523438 4.265626 9.523438 9.527344zm0 0" fill="#474f6f"/><path d="m428.019531 445.570312c-13.96875 12.691407-29.347656 23.851563-45.871093 33.21875-36.867188 20.941407-79.449219 32.972657-124.808594 33.199219-.449219.011719-.890625.011719-1.339844.011719-45.871094 0-88.929688-12.070312-126.160156-33.210938-16.519532-9.367187-31.898438-20.527343-45.859375-33.21875zm0 0" fill="#ed771b"/><path d="m428.019531 445.570312c-45.140625 41-104.988281 66.089844-170.679687 66.417969-.449219.011719-.890625.011719-1.339844.011719v-66.429688zm0 0" fill="#c55835"/><path d="m183.601562 230.980469v181.460937h-130.25c-33.441406-43.261718-53.351562-97.53125-53.351562-156.441406 0-8.441406.410156-16.789062 1.210938-25.019531zm0 0" fill="#fff"/><path d="m236.96875 348.722656c0 30.367188-24.617188 54.984375-54.984375 54.984375s-54.984375-24.617187-54.984375-54.984375c0-30.367187 24.617188-54.984375 54.984375-54.984375s54.984375 24.617188 54.984375 54.984375zm0 0" fill="#20273a"/><path d="m251.71875 420.789062c-19.898438 13.371094-43.839844 21.179688-69.597656 21.210938h-.152344c-25.820312 0-49.820312-7.808594-69.757812-21.210938 1.050781-24.078124 15.617187-45.480468 37.527343-55.320312 1.300781-.589844 2.632813-1.140625 3.992188-1.640625l2.960937-1.097656 1.570313-.582031 6.738281-2.5 2.511719-.929688h28.917969l2.511718.929688 6.730469 2.5 1.566406.582031 2.972657 1.097656c2.058593.773437 4.070312 1.632813 6.007812 2.59375 20.78125 10.21875 34.480469 31.039063 35.5 54.367187zm0 0" fill="#8fc9f7"/><path d="m181.96875 358.71875v83.238281c-24.535156 0-47.414062-7.058593-66.734375-19.253906-1.015625-.644531-2.027344-1.300781-3.023437-1.976563.652343-14.664062 6.324218-28.332031 15.613281-38.996093 3.203125-3.679688 6.832031-6.996094 10.820312-9.878907 4.535157-3.261718 9.53125-5.957031 14.929688-7.972656l10.828125-4.011718.597656-.21875 2.515625-.929688zm0 0" fill="#d0f6ff"/><path d="m205.191406 361.964844-23.207031 38.351562-.015625.023438-23.222656-38.378906 5.65625-2.09375.597656-.21875 2.515625-.929688h28.910156l2.515625.929688.59375.21875zm0 0" fill="#ffa87a"/><path d="m205.191406 361.964844-23.207031 38.351562v-41.597656h14.441406l2.515625.929688.59375.21875zm0 0" fill="#e3835a"/><path d="m251.71875 420.789062v24.960938h-139.390625l-.117187-24.960938c1.050781-24.078124 15.617187-45.480468 37.527343-55.320312l32.230469 68.171875 34.25-67.21875c20.78125 10.21875 34.480469 31.039063 35.5 54.367187zm0 0" fill="#ff3445"/><path d="m251.71875 420.789062v24.78125h-69.75v-11.929687l34.25-67.21875c20.78125 10.21875 34.480469 31.039063 35.5 54.367187zm0 0" fill="#dd1265"/><path d="m158.746094 428.078125v-11.875h-15.636719v-47.285156c2.121094-1.273438 4.328125-2.429688 6.617187-3.460938l32.242188 68.1875zm0 0" fill="#dd1265"/><path d="m205.195312 428.078125v-11.875h15.632813v-47.285156c-2.121094-1.273438-4.328125-2.429688-6.617187-3.460938l-32.242188 68.1875zm0 0" fill="#ba0d5c"/><path d="m132.363281 296.132812c-6.101562 0-11.050781 4.949219-11.050781 11.050782 0 11.113281 9.011719 20.125 20.125 20.125v-31.199219zm0 0" fill="#ffa87a"/><path d="m231.59375 296.132812c6.101562 0 11.046875 4.949219 11.046875 11.050782 0 11.113281-9.007813 20.125-20.125 20.125v-31.199219zm0 0" fill="#e3835a"/><path d="m198.714844 335.953125v23.820313c0 9.242187-7.492188 16.738281-16.738282 16.738281-9.242187 0-16.738281-7.496094-16.738281-16.738281v-23.820313zm0 0" fill="#ffa87a"/><path d="m198.714844 335.953125v23.820313c0 9.242187-7.492188 16.738281-16.738282 16.738281v-40.558594zm0 0" fill="#e3835a"/><path d="m225.167969 298.210938v16.28125c0 23.84375-19.328125 43.1875-43.183594 43.191406-.003906 0-.003906 0-.007813 0-23.84375 0-43.1875-19.34375-43.1875-43.191406v-16.28125c0-2.453126.203126-4.859376.609376-7.199219 2.816406-16.824219 15.367187-30.347657 31.660156-34.601563 3.484375-.90625 7.152344-1.386718 10.917968-1.386718h.007813c3.777344 0 7.4375.480468 10.925781 1.394531 16.289063 4.246093 28.832032 17.769531 31.652344 34.59375.398438 2.335937.605469 4.746093.605469 7.199219zm0 0" fill="#ffc0a4"/><path d="m225.167969 298.210938v16.28125c0 23.84375-19.328125 43.1875-43.183594 43.191406v-102.660156c3.777344 0 7.4375.480468 10.925781 1.394531 16.289063 4.246093 28.832032 17.769531 31.652344 34.59375.398438 2.335937.605469 4.746093.605469 7.199219zm0 0" fill="#ffa87a"/><path d="m175.023438 309.078125c0 2.9375-2.382813 5.316406-5.320313 5.316406-2.933594 0-5.316406-2.378906-5.316406-5.316406s2.382812-5.316406 5.316406-5.316406c2.9375 0 5.320313 2.378906 5.320313 5.316406zm0 0" fill="#323b5a"/><path d="m206.714844 309.078125c0 2.9375-2.378906 5.316406-5.316406 5.316406s-5.316407-2.378906-5.316407-5.316406 2.378907-5.316406 5.316407-5.316406 5.316406 2.378906 5.316406 5.316406zm0 0" fill="#20273a"/><path d="m234.429688 294.21875c0 2.523438-1.894532 4.652344-4.398438 4.945312-2.171875.257813-4.382812.386719-6.617188.386719-16.386718 0-31.144531-7-41.429687-18.1875-10.289063 11.1875-25.046875 18.1875-41.429687 18.1875-2.210938 0-4.390626-.125-6.539063-.375-1.277344-.144531-2.398437-.769531-3.203125-1.667969-.800781-.90625-1.289062-2.085937-1.289062-3.378906 0-19.539062 10.546874-37.78125 27.863281-46.832031 3.503906-1.824219 7.230469-3.28125 11.136719-4.300781 4.292968-1.113282 8.8125-1.707032 13.453124-1.707032h.007813c4.652344 0 9.167969.59375 13.457031 1.71875 2.230469.582032 4.402344 1.308594 6.507813 2.15625 9.914062 4.015626 18.035156 10.933594 23.675781 19.519532 5.640625 8.582031 8.804688 18.84375 8.804688 29.535156zm0 0" fill="#313b5a"/><path d="m234.429688 294.21875c0 2.523438-1.894532 4.652344-4.398438 4.945312-2.171875.257813-4.382812.386719-6.617188.386719-16.386718 0-31.144531-7-41.429687-18.1875v-40.074219c4.652344 0 9.167969.59375 13.457031 1.71875 2.230469.582032 4.402344 1.304688 6.507813 2.15625 9.914062 4.015626 18.035156 10.929688 23.675781 19.519532 5.640625 8.582031 8.804688 18.84375 8.804688 29.535156zm0 0" fill="#20273a"/><path d="m185.21875 304.367188v16.074218c0 1.785156-1.449219 3.234375-3.234375 3.238282h-.003906c-1.789063 0-3.242188-1.453126-3.242188-3.238282v-16.074218c0-1.792969 1.453125-3.238282 3.242188-3.238282h.003906c1.785156.003906 3.234375 1.445313 3.234375 3.238282zm0 0" fill="#ffa87a"/><path d="m185.21875 304.367188v16.074218c0 1.785156-1.449219 3.234375-3.234375 3.238282v-22.550782c1.785156.003906 3.234375 1.445313 3.234375 3.238282zm0 0" fill="#e3835a"/><path d="m181.984375 400.316406-31.070313 3.824219-1.1875-38.683594 9.019532-3.496093zm0 0" fill="#fff"/><path d="m181.984375 400.316406 31.070313 3.824219 1.1875-38.683594-9.019532-3.496093zm0 0" fill="#d0f6ff"/><path d="m181.984375 400.316406-17.789063 26.871094c-2.953124 4.464844-9.058593 5.511719-13.335937 2.292969-4.800781-3.621094-4.953125-10.777344-.308594-14.59375l15.304688-12.585938zm0 0" fill="#ffd112"/><path d="m181.304688 400.316406 17.789062 26.871094c2.953125 4.464844 9.058594 5.511719 13.335938 2.292969 4.800781-3.621094 4.953124-10.777344.308593-14.59375l-15.304687-12.585938zm0 0" fill="#ff9f00"/><path d="m379.03125 420.390625c-20.210938 13.578125-44.542969 21.519531-70.710938 21.550781h-.148437c-26.242187 0-50.621094-7.941406-70.882813-21.550781 1.070313-24.46875 15.871094-46.210937 38.132813-56.210937 1.316406-.601563 2.667969-1.160157 4.046875-1.660157l3.011719-1.121093 1.597656-.589844 6.84375-2.539063 2.546875-.949219h29.390625l2.550781.949219 6.53125 2.429688.308594.109375 1.589844.589844 3.019531 1.121093c2.089844.78125 4.128906 1.652344 6.109375 2.628907 1.601562.792968 3.160156 1.640624 4.679688 2.5625 18.472656 11.050781 30.429687 30.777343 31.382812 52.679687zm0 0" fill="#8fc9f7"/><path d="m308.171875 357.320312v84.578126c-24.933594 0-48.183594-7.167969-67.8125-19.570313-1.03125-.648437-2.058594-1.316406-3.070313-2 .660157-14.898437 6.429688-28.789063 15.859376-39.617187 3.261718-3.75 6.941406-7.109376 11-10.039063 1.460937-1.050781 2.972656-2.050781 4.53125-2.980469 3.339843-2.011718 6.890624-3.722656 10.640624-5.132812l4.75-1.757813 6.25-2.3125.609376-.21875 2.550781-.949219zm0 0" fill="#d0f6ff"/><path d="m321.796875 440.5625h-27.113281l9.460937-56.242188h8.195313zm0 0" fill="#474f6f"/><path d="m321.796875 440.5625h-13.539063v-56.242188h4.082032zm0 0" fill="#323b5a"/><path d="m379.035156 420.390625v25.359375h-141.625l-.121094-25.359375c1.066407-24.464844 15.867188-46.210937 38.132813-56.207031l32.746094 69.261718 34.796875-68.296874c21.113281 10.382812 35.035156 31.539062 36.070312 55.242187zm0 0" fill="#474f6f"/><path d="m379.035156 420.390625v25.175781h-70.867187v-12.121094l34.796875-68.296874c21.113281 10.382812 35.035156 31.539062 36.070312 55.242187zm0 0" fill="#323b5a"/><path d="m284.570312 427.789062v-12.058593h-15.890624v-48.039063c3.339843-2.011718 6.890624-3.722656 10.640624-5.132812l4.75-1.757813c.007813 0 .007813.007813.007813.007813l24.09375 72.640625zm0 0" fill="#313b5a"/><path d="m347.648438 367.710938v48.019531h-15.886719v12.058593l-23.589844 5.660157 23.738281-72.71875c.011719-.011719.019532-.019531.03125-.03125l.308594.109375 1.589844.589844 3.019531 1.121093c2.089844.78125 4.128906 1.652344 6.109375 2.628907 1.601562.792968 3.160156 1.640624 4.679688 2.5625zm0 0" fill="#20273a"/><path d="m313.277344 384.320312 9.59375-9.59375-29.003906.390626 9.203124 9.203124zm0 0" fill="#323b5a"/><path d="m258.632812 294.738281c-6.101562 0-11.046874 4.949219-11.046874 11.050781 0 11.113282 9.007812 20.125 20.125 20.125v-31.199218zm0 0" fill="#ffa87a"/><path d="m357.863281 294.738281c6.101563 0 11.050781 4.949219 11.050781 11.050781 0 11.113282-9.011718 20.125-20.128906 20.125v-31.199218zm0 0" fill="#e3835a"/><path d="m324.988281 334.558594v23.820312c0 9.242188-7.496093 16.738282-16.742187 16.738282-9.238282 0-16.738282-7.496094-16.738282-16.738282v-23.820312zm0 0" fill="#ffa87a"/><path d="m324.988281 334.558594v23.820312c0 9.242188-7.496093 16.738282-16.742187 16.738282v-40.558594zm0 0" fill="#e3835a"/><path d="m351.4375 296.8125v16.285156c0 23.84375-19.328125 43.183594-43.179688 43.1875-.003906 0-.003906 0-.011718 0-23.84375 0-43.183594-19.339844-43.183594-43.1875v-16.285156c0-2.453125.199219-4.859375.605469-7.199219 2.816406-16.824219 15.367187-30.34375 31.660156-34.597656 3.484375-.90625 7.152344-1.386719 10.917969-1.386719h.011718c3.773438 0 7.433594.480469 10.921876 1.394532 16.289062 4.246093 28.832031 17.765624 31.652343 34.589843.402344 2.339844.605469 4.746094.605469 7.199219zm0 0" fill="#ffc0a4"/><path d="m351.4375 296.8125v16.285156c0 23.84375-19.328125 43.183594-43.179688 43.1875v-102.65625c3.773438 0 7.433594.480469 10.921876 1.394532 16.289062 4.246093 28.832031 17.765624 31.652343 34.589843.402344 2.339844.605469 4.746094.605469 7.199219zm0 0" fill="#ffa87a"/><path d="m315.378906 335.953125c0 3.945313-3.195312 7.140625-7.136718 7.140625-3.941407 0-7.136719-3.195312-7.136719-7.140625 0-3.941406 3.195312-7.136719 7.136719-7.136719 3.941406 0 7.136718 3.195313 7.136718 7.136719zm0 0" fill="#20273a"/><path d="m294.128906 307.683594c0 2.9375-2.382812 5.316406-5.316406 5.316406-2.9375 0-5.320312-2.378906-5.320312-5.316406s2.382812-5.316406 5.320312-5.316406c2.933594 0 5.316406 2.378906 5.316406 5.316406zm0 0" fill="#323b5a"/><path d="m325.359375 307.683594c0 2.9375-2.378906 5.316406-5.316406 5.316406s-5.316407-2.378906-5.316407-5.316406 2.378907-5.316406 5.316407-5.316406 5.316406 2.378906 5.316406 5.316406zm0 0" fill="#20273a"/><path d="m360.703125 292.824219c0 2.523437-1.894531 4.652343-4.398437 4.945312-2.171876.253907-4.382813.382813-6.621094.382813-16.382813 0-31.144532-6.996094-41.425782-18.183594-10.292968 11.1875-25.046874 18.183594-41.433593 18.183594-2.210938 0-4.390625-.125-6.535157-.375-1.28125-.144532-2.398437-.765625-3.203124-1.667969-.804688-.90625-1.289063-2.085937-1.289063-3.378906 0-19.539063 10.546875-37.78125 27.859375-46.832031 3.503906-1.824219 7.234375-3.28125 11.140625-4.300782 4.292969-1.113281 8.808594-1.707031 13.453125-1.707031h.007812c4.652344 0 9.164063.59375 13.453126 1.722656 2.234374.578125 4.40625 1.304688 6.511718 2.152344 9.914063 4.015625 18.03125 10.933594 23.671875 19.523437 5.640625 8.578126 8.808594 18.84375 8.808594 29.535157zm0 0" fill="#313b5a"/><path d="m360.703125 292.824219c0 2.523437-1.894531 4.652343-4.398437 4.945312-2.171876.253907-4.382813.382813-6.621094.382813-16.382813 0-31.144532-6.996094-41.425782-18.183594v-40.078125c4.648438 0 9.164063.59375 13.453126 1.71875 2.230468.582031 4.402343 1.308594 6.511718 2.15625 9.910156 4.015625 18.03125 10.933594 23.671875 19.519531 5.640625 8.582032 8.808594 18.847656 8.808594 29.539063zm0 0" fill="#20273a"/><path d="m311.488281 302.972656v16.074219c0 1.785156-1.449219 3.230469-3.234375 3.238281h-.003906c-1.789062 0-3.242188-1.453125-3.242188-3.238281v-16.074219c0-1.792968 1.453126-3.238281 3.242188-3.238281h.003906c1.785156.003906 3.234375 1.445313 3.234375 3.238281zm0 0" fill="#ffa87a"/><path d="m311.488281 302.972656v16.074219c0 1.785156-1.449219 3.230469-3.234375 3.238281v-22.550781c1.785156.003906 3.234375 1.445313 3.234375 3.238281zm0 0" fill="#e3835a"/><path d="m284.078125 360.808594 7.429687-7.886719 16.738282 22.195313-15.308594 12.507812zm0 0" fill="#fff"/><path d="m331.910156 360.726562-6.921875-7.804687-16.742187 22.195313 14.917968 12.054687zm0 0" fill="#fff"/><path d="m174.378906 332.285156c-3.175781 0-5.207031 3.402344-3.683594 6.1875 2.1875 3.980469 6.421876 6.683594 11.289063 6.683594s9.101563-2.703125 11.289063-6.683594c1.527343-2.785156-.507813-6.1875-3.679688-6.1875zm0 0" fill="#313b5a"/><path d="m58.910156 362.070312c-5.808594 6.738282-14.410156 11.007813-24 11.007813-2.410156 0-4.761718-.269531-7.019531-.777344-7.910156-15.480469-14.289063-31.871093-18.941406-48.980469 4.660156-6.671874 11.832031-11.460937 20.152343-13 3.339844 10.859376 12.359376 19.21875 23.597657 21.628907-.9375 2.992187-1.449219 6.179687-1.449219 9.480469 0 7.890624 2.890625 15.101562 7.660156 20.640624zm0 0" fill="#ffd112"/><path d="m65.164062 332.121094c-1.882812.351562-3.820312.535156-5.804687.535156-2.285156 0-4.511719-.242188-6.660156-.707031 1.304687-4.15625 3.4375-7.9375 6.207031-11.160157 2.808594 3.265626 4.960938 7.113282 6.257812 11.332032zm0 0" fill="#ffd112"/><path d="m66.558594 341.429688c0 7.886718-2.882813 15.097656-7.652344 20.640624-4.769531-5.542968-7.652344-12.753906-7.652344-20.640624 0-3.300782.507813-6.488282 1.445313-9.480469 2.148437.464843 4.375.707031 6.660156.707031 1.984375 0 3.921875-.183594 5.804687-.535156.90625 2.945312 1.394532 6.070312 1.394532 9.308594zm0 0" fill="#b5e237"/><path d="m58.90625 320.789062c2.808594 3.265626 4.960938 7.113282 6.257812 11.332032-1.882812.351562-3.820312.535156-5.804687.535156-2.285156 0-4.511719-.242188-6.660156-.707031 1.300781-4.152344 3.4375-7.9375 6.207031-11.160157zm0 0" fill="#00a042"/><path d="m114.554688 341.429688c0 17.480468-14.171876 31.652343-31.652344 31.652343-9.59375 0-18.191406-4.269531-23.996094-11.015625 4.769531-5.539062 7.652344-12.75 7.652344-20.636718 0-3.242188-.488282-6.367188-1.394532-9.308594 11.574219-2.144532 20.933594-10.585938 24.398438-21.636719 14.285156 3.058594 24.992188 15.75 24.992188 30.945313zm0 0" fill="#00a042"/><path d="m58.90625 320.789062c-2.769531 3.222657-4.902344 7.007813-6.207031 11.160157-11.238281-2.402344-20.261719-10.773438-23.601563-21.632813 1.882813-.351562 3.828125-.535156 5.808594-.535156 9.597656 0 18.191406 4.269531 24 11.007812zm0 0" fill="#ff9f00"/><path d="m89.5625 310.484375c-3.464844 11.050781-12.824219 19.492187-24.398438 21.636719-1.296874-4.21875-3.449218-8.066406-6.257812-11.332032 5.804688-6.738281 14.402344-11.007812 23.996094-11.007812 2.285156 0 4.515625.242188 6.660156.703125zm0 0" fill="#9e69e2"/><path d="m52.699219 331.949219c1.304687-4.152344 3.4375-7.9375 6.207031-11.160157 2.808594 3.265626 4.960938 7.113282 6.257812 11.332032-1.882812.351562-3.820312.535156-5.804687.535156-2.285156 0-4.515625-.242188-6.660156-.707031zm0 0" fill="#f27121"/><path d="m91.007812 301.003906c0 3.304688-.507812 6.488282-1.445312 9.480469-2.144531-.460937-4.375-.703125-6.65625-.703125-9.597656 0-18.191406 4.269531-24 11.007812-5.804688-6.738281-14.402344-11.007812-23.996094-11.007812-1.984375 0-3.929687.183594-5.8125.535156-.902344-2.945312-1.390625-6.074218-1.390625-9.3125 0-17.480468 14.171875-31.648437 31.652344-31.648437s31.648437 14.167969 31.648437 31.648437zm0 0" fill="#ff3445"/><path d="m484.101562 372.328125v.011719c-12.070312 23.628906-27.710937 45.121094-46.203124 63.789062-1.910157 1.921875-3.839844 3.820313-5.808594 5.671875-24.03125-1.070312-46.308594-8.8125-65.070313-21.410156 1.070313-24.46875 15.871094-46.210937 38.128907-56.210937 1.320312-.601563 2.671874-1.160157 4.050781-1.660157l3.011719-1.121093 1.597656-.589844 6.839844-2.539063 2.550781-.949219h29.390625l2.550781.949219 6.53125 2.429688.308594.109375 1.589843.589844 3.019532 1.121093c2.089844.78125 4.128906 1.652344 6.109375 2.628907 1.601562.792968 3.160156 1.640624 4.679687 2.5625 2.351563 1.410156 4.601563 2.949218 6.722656 4.617187zm0 0" fill="#8fc9f7"/><path d="m437.898438 357.320312v78.808594c-1.488282 1.5-2.988282 2.992188-4.519532 4.429688-.417968.421875-.828125.8125-1.25 1.210937-22.75-1.019531-43.929687-8-62.039062-19.441406-1.03125-.648437-2.058594-1.316406-3.070313-2 .660157-14.898437 6.429688-28.789063 15.859375-39.617187 3.261719-3.75 6.941406-7.109376 11-10.039063 1.460938-1.050781 2.972656-2.050781 4.53125-2.980469 3.339844-2.011718 6.890625-3.722656 10.640625-5.132812l4.75-1.757813 6.25-2.3125.609375-.21875 2.550782-.949219zm0 0" fill="#d0f6ff"/><path d="m448.808594 424.410156c-2.4375 2.800782-4.949219 5.539063-7.507813 8.230469-1.101562 1.140625-2.199219 2.28125-3.3125 3.398437-.027343.03125-.058593.0625-.089843.089844-1.488282 1.5-2.988282 2.992188-4.519532 4.429688h-8.957031l9.457031-56.238282h8.191406zm0 0" fill="#474f6f"/><path d="m448.808594 424.410156c-2.4375 2.800782-4.949219 5.539063-7.507813 8.230469-1.101562 1.140625-2.199219 2.28125-3.3125 3.398437v-51.71875h4.082031zm0 0" fill="#323b5a"/><path d="m484.101562 372.328125c-12.070312 23.632813-27.710937 45.132813-46.203124 63.800781-3.269532 3.300782-6.628907 6.511719-10.070313 9.621094h-60.6875l-.121094-25.359375c1.070313-24.46875 15.871094-46.210937 38.128907-56.210937l32.75 69.269531 34.800781-68.300781c4.089843 2.011718 7.902343 4.421874 11.402343 7.179687zm0 0" fill="#474f6f"/><path d="m484.101562 372.328125c-12.070312 23.632813-27.710937 45.132813-46.203124 63.800781v-2.679687l34.800781-68.300781c4.089843 2.011718 7.902343 4.421874 11.402343 7.179687zm0 0" fill="#323b5a"/><path d="m414.304688 427.789062v-12.058593h-15.890626v-48.039063c3.339844-2.011718 6.890626-3.722656 10.640626-5.132812l4.75-1.757813c.007812 0 .007812.007813.007812.007813l24.089844 72.640625zm0 0" fill="#313b5a"/><path d="m477.378906 367.710938v16.9375c-10.140625 17.402343-22.269531 33.5-36.078125 47.992187l-3.402343.808594 23.742187-72.71875c.007813-.011719.019531-.019531.03125-.03125l.308594.109375 1.589843.589844 3.019532 1.121093c2.089844.78125 4.128906 1.652344 6.109375 2.628907 1.601562.792968 3.160156 1.640624 4.679687 2.5625zm0 0" fill="#20273a"/><path d="m443.007812 384.320312 9.597657-9.59375-29.003907.390626 9.203126 9.203124zm0 0" fill="#323b5a"/><path d="m388.125 294.738281c-6.101562 0-11.050781 4.949219-11.050781 11.050781 0 11.113282 9.011719 20.125 20.128906 20.125v-31.199218zm0 0" fill="#ffa87a"/><path d="m487.355469 294.738281c6.105469 0 11.050781 4.949219 11.050781 11.050781 0 11.113282-9.011719 20.125-20.128906 20.125v-31.199218zm0 0" fill="#e3835a"/><path d="m454.480469 334.558594v23.820312c0 9.242188-7.496094 16.738282-16.742188 16.738282-9.242187 0-16.738281-7.496094-16.738281-16.738282v-23.820312zm0 0" fill="#ffa87a"/><path d="m454.480469 334.558594v23.820312c0 9.242188-7.496094 16.738282-16.742188 16.738282v-40.558594zm0 0" fill="#e3835a"/><path d="m480.929688 296.8125v16.285156c0 23.84375-19.328126 43.183594-43.183594 43.1875-.003906 0-.003906 0-.007813 0-23.84375 0-43.183593-19.339844-43.183593-43.1875v-16.285156c0-2.453125.199218-4.859375.605468-7.199219 2.816406-16.824219 15.371094-30.34375 31.660156-34.597656 3.488282-.90625 7.152344-1.386719 10.917969-1.386719h.007813c3.777344 0 7.4375.480469 10.925781 1.394532 16.292969 4.246093 28.832031 17.765624 31.652344 34.589843.402343 2.339844.605469 4.746094.605469 7.199219zm0 0" fill="#ffc0a4"/><path d="m480.929688 296.8125v16.285156c0 23.84375-19.328126 43.183594-43.183594 43.1875v-102.65625c3.777344 0 7.4375.480469 10.925781 1.394532 16.292969 4.246093 28.832031 17.765624 31.652344 34.589843.402343 2.339844.605469 4.746094.605469 7.199219zm0 0" fill="#ffa87a"/><path d="m424.714844 307.683594c0 2.9375-2.382813 5.316406-5.320313 5.316406-2.933593 0-5.316406-2.378906-5.316406-5.316406s2.382813-5.316406 5.316406-5.316406c2.9375 0 5.320313 2.378906 5.320313 5.316406zm0 0" fill="#323b5a"/><path d="m453.765625 307.683594c0 2.9375-2.378906 5.316406-5.316406 5.316406s-5.316407-2.378906-5.316407-5.316406 2.378907-5.316406 5.316407-5.316406 5.316406 2.378906 5.316406 5.316406zm0 0" fill="#20273a"/><path d="m440.980469 302.972656v16.074219c0 1.785156-1.449219 3.230469-3.234375 3.238281h-.003906c-1.789063 0-3.242188-1.453125-3.242188-3.238281v-16.074219c0-1.792968 1.453125-3.238281 3.242188-3.238281h.003906c1.785156.003906 3.234375 1.445313 3.234375 3.238281zm0 0" fill="#ffa87a"/><path d="m440.980469 302.972656v16.074219c0 1.785156-1.449219 3.230469-3.234375 3.238281v-22.550781c1.785156.003906 3.234375 1.445313 3.234375 3.238281zm0 0" fill="#e3835a"/><path d="m443.375 334.558594h-11.28125c-1.253906 0-2.269531-1.015625-2.273438-2.269532v-.003906c0-1.253906 1.019532-2.273437 2.273438-2.273437h11.28125c1.253906 0 2.269531 1.019531 2.269531 2.273437v.003906c-.003906 1.253907-1.015625 2.269532-2.269531 2.269532zm0 0" fill="#e3835a"/><path d="m480.929688 269.085938v25.632812l-21.589844-16.589844c-5.609375 7.035156-13.171875 12.105469-21.59375 14.667969-4.117188 1.261719-8.445313 1.921875-12.851563 1.921875h-33.339843v-9.289062c0-16.699219 11.121093-31.363282 27.203124-35.859376l18.988282-5.316406 6.015625-1.683594c1.148437-.324218 2.304687-.472656 3.441406-.472656 5.421875 0 10.425781 3.480469 12.136719 8.890625 11.261718-2 21.589844 6.660157 21.589844 18.097657zm0 0" fill="#313b5a"/><path d="m480.929688 269.085938v25.632812l-21.589844-16.589844c-5.609375 7.035156-13.171875 12.105469-21.59375 14.667969v-48.542969l6.015625-1.683594c1.148437-.324218 2.304687-.472656 3.441406-.472656 5.421875 0 10.425781 3.480469 12.136719 8.890625 11.261718-2 21.589844 6.660157 21.589844 18.097657zm0 0" fill="#20273a"/><path d="m413.8125 360.808594 7.429688-7.886719 16.738281 22.195313-15.308594 12.507812zm0 0" fill="#fff"/><path d="m461.640625 360.726562-6.921875-7.804687-16.738281 22.195313 14.914062 12.054687zm0 0" fill="#fff"/></svg>