<svg height="512pt" viewBox="0 0 512 512" width="512pt" xmlns="http://www.w3.org/2000/svg"><path d="m512 256c0 141.386719-114.613281 256-256 256s-256-114.613281-256-256 114.613281-256 256-256 256 114.613281 256 256zm0 0" fill="#ffe955"/><path d="m512 256c0 141.378906-114.621094 256-256 256s-256-114.621094-256-256c0-46.21875 12.25-89.570312 33.679688-127 44.121093 77.070312 127.160156 129 222.320312 129s178.210938-51.929688 222.320312-129c21.429688 37.429688 33.679688 80.78125 33.679688 127zm0 0" fill="#ffd112"/><path d="m481.261719 377.699219v.011719c-31.730469 58.609374-85.671875 103.4375-150.542969 123.210937-23.640625 7.199219-48.730469 11.078125-74.71875 11.078125-18.269531 0-36.089844-1.910156-53.28125-5.550781-74.359375-15.75-136.820312-63.777344-171.980469-128.738281v-.011719zm0 0" fill="#ff9f00"/><path d="m330.71875 238.488281v262.433594c-23.640625 7.199219-48.730469 11.078125-74.71875 11.078125-70.808594 0-134.910156-28.75-181.261719-75.21875v-251.910156h202.363281zm0 0" fill="#fff"/><path d="m330.71875 238.488281v262.433594c-23.640625 7.199219-48.730469 11.078125-74.71875 11.078125-18.269531 0-36.089844-1.910156-53.28125-5.558594v-321.570312h74.382812zm0 0" fill="#d0f6ff"/><path d="m330.71875 238.492188-53.621094-53.617188v53.617188zm0 0" fill="#65b2ff"/><path d="m297.042969 304.457031c0 3.890625-1.488281 7.78125-4.453125 10.746094l-78.789063 78.785156c-3.054687 3.058594-7.082031 4.539063-11.078125 4.445313-3.773437-.074219-7.519531-1.554688-10.410156-4.445313l-35.261719-35.261719c-5.933593-5.933593-5.933593-15.5625 0-21.496093 2.960938-2.972657 6.851563-4.453125 10.742188-4.453125s7.78125 1.480468 10.746093 4.453125l13.773438 13.777343c2.886719 2.878907 6.632812 4.367188 10.410156 4.441407 4 .09375 8.023438-1.390625 11.078125-4.441407l57.292969-57.300781c5.941406-5.933593 15.5625-5.933593 21.496094 0 2.964844 2.96875 4.453125 6.859375 4.453125 10.75zm0 0" fill="#6cdc2d"/><path d="m297.042969 304.457031c0 3.890625-1.488281 7.78125-4.453125 10.746094l-78.789063 78.785156c-3.054687 3.058594-7.082031 4.539063-11.078125 4.445313v-42.984375c4 .09375 8.023438-1.390625 11.078125-4.441407l57.292969-57.300781c5.941406-5.933593 15.5625-5.933593 21.496094 0 2.964844 2.96875 4.453125 6.859375 4.453125 10.75zm0 0" fill="#00a042"/><path d="m420.859375 243.609375v208.230469c-1.578125 1.332031-3.167969 2.640625-4.78125 3.929687h-48.429687v-212.160156zm0 0" fill="#65b2ff"/><path d="m420.859375 243.609375v208.230469c-1.578125 1.332031-3.167969 2.640625-4.78125 3.929687l-.007813.011719h-35.871093v-212.171875zm0 0" fill="#0f9be8"/><path d="m420.859375 243.609375v208.230469c-1.578125 1.332031-3.167969 2.640625-4.78125 3.929687l-.007813.011719h-21.820312v-212.171875zm0 0" fill="#0066e8"/><path d="m420.859375 243.605469c-8.390625 4.113281-17.5 6.160156-26.605469 6.160156-4.71875 0-9.4375-.546875-14.058594-1.652344-4.289062-1.023437-8.507812-2.523437-12.550781-4.507812l10.066407-27.410157 10.195312-27.777343c1.046875-2.859375 3.554688-4.335938 6.101562-4.421875.078126-.003906.164063-.003906.242188-.003906 2.632812 0 5.265625 1.476562 6.347656 4.425781l10.195313 27.777343zm0 0" fill="#ffc0a4"/><path d="m420.859375 243.605469c-8.390625 4.113281-17.5 6.160156-26.605469 6.160156-4.71875 0-9.4375-.546875-14.058594-1.652344l7.652344-35.515625 6.160156-28.601562c.078126-.003906.164063-.003906.242188-.003906 2.632812 0 5.265625 1.476562 6.347656 4.425781l10.195313 27.777343zm0 0" fill="#ffa87a"/><path d="m420.859375 243.605469c-8.390625 4.113281-17.5 6.160156-26.605469 6.160156v-65.773437c2.628906 0 5.261719 1.480468 6.34375 4.429687l10.195313 27.777344zm0 0" fill="#e3835a"/><path d="m410.792969 216.195312c-5.40625 1.535157-10.972657 2.304688-16.539063 2.304688-2.53125 0-5.0625-.15625-7.574218-.472656-3.019532-.378906-6.019532-.992188-8.96875-1.828125l10.195312-27.777344c1.046875-2.859375 3.554688-4.335937 6.101562-4.421875.078126-.007812.164063-.007812.242188-.007812 2.632812 0 5.265625 1.480468 6.347656 4.429687zm0 0" fill="#474f6f"/><path d="m410.792969 216.195312c-5.40625 1.535157-10.972657 2.304688-16.539063 2.304688-2.53125 0-5.0625-.15625-7.574218-.472656l1.171874-5.429688 6.15625-28.601562c.082032-.003906.164063-.003906.246094-.003906 2.628906 0 5.261719 1.476562 6.34375 4.425781zm0 0" fill="#323b5a"/><path d="m416.078125 455.769531c-6.976563 5.609375-14.269531 10.859375-21.828125 15.710938-4.570312 2.941406-9.25 5.738281-14.019531 8.398437-3.640625 2.03125-7.332031 3.960938-11.082031 5.8125-.96875-2.769531-1.5-5.742187-1.5-8.839844v-21.082031zm0 0" fill="#ff3445"/><path d="m416.078125 455.769531c-6.976563 5.609375-14.269531 10.859375-21.828125 15.710938-4.570312 2.941406-9.25 5.738281-14.019531 8.398437-.019531-.367187-.03125-.738281-.03125-1.117187v-22.992188zm0 0" fill="#dd1265"/><path d="m416.078125 455.769531c-6.976563 5.609375-14.269531 10.859375-21.828125 15.710938v-15.710938zm0 0" fill="#ba0d5c"/><path d="m420.859375 445.699219v6.140625c-1.578125 1.332031-3.167969 2.640625-4.78125 3.929687-3.949219 3.179688-8.007813 6.242188-12.15625 9.179688h-36.273437v-19.25zm0 0" fill="#fff"/><path d="m420.859375 445.699219v6.140625c-1.578125 1.332031-3.167969 2.640625-4.78125 3.929687-3.949219 3.179688-8.007813 6.242188-12.15625 9.179688h-23.722656v-19.25zm0 0" fill="#d0f6ff"/><path d="m410.792969 216.195312c-5.40625 1.535157-10.972657 2.304688-16.539063 2.304688v-34.507812c.324219 0 .65625.023437.984375.070312.320313.042969.644531.117188.960938.207031 1.269531.367188 2.441406 1.109375 3.324219 2.214844.21875.277344.421874.578125.597656.898437.183594.324219.339844.667969.476562 1.039063zm0 0" fill="#20273a"/><path d="m420.859375 445.699219v6.140625c-1.578125 1.332031-3.167969 2.640625-4.78125 3.929687-3.949219 3.179688-8.007813 6.242188-12.15625 9.179688h-9.671875v-19.25zm0 0" fill="#8fc9f7"/></svg>