<svg height="512pt" viewBox="0 0 512 512" width="512pt" xmlns="http://www.w3.org/2000/svg"><path d="m512 256c0 141.378906-114.621094 256-256 256s-256-114.621094-256-256c0-57.699219 19.101562-110.949219 51.308594-153.761719.589844-.777343 1.179687-1.558593 1.792968-2.339843 12.257813-15.929688 26.367188-30.378907 41.988282-43.019532.761718-.609375 1.519531-1.21875 2.289062-1.839844 43.621094-34.460937 98.710938-55.039062 158.621094-55.039062 59.898438 0 115 20.578125 158.609375 55.050781 16.539063 13.070313 31.429687 28.140625 44.289063 44.847657 33.300781 43.210937 53.101562 97.339843 53.101562 156.101562zm0 0" fill="#b5e237"/><path d="m512 256c0 141.378906-114.621094 256-256 256s-256-114.621094-256-256c0-46.21875 12.25-89.570312 33.679688-127 44.121093 77.070312 127.160156 129 222.320312 129s178.210938-51.929688 222.320312-129c21.429688 37.429688 33.679688 80.78125 33.679688 127zm0 0" fill="#95d600"/><path d="m481.261719 377.699219v.011719c-43.292969 79.96875-127.941407 134.289062-225.261719 134.289062s-181.96875-54.320312-225.261719-134.289062v-.011719zm0 0" fill="#85af12"/><path d="m106.296875 416.644531 288.789063-288.789062 11.3125 11.316406-288.785157 288.785156zm0 0" fill="#fff"/><path d="m106.296875 139.1875 11.316406-11.3125 288.785157 288.785156-11.3125 11.3125zm0 0" fill="#fff"/><path d="m321.613281 277.925781c0 36.039063-29.21875 65.257813-65.261719 65.257813-36.042968 0-65.261718-29.21875-65.261718-65.257813 0-36.042969 29.21875-65.261719 65.261718-65.261719 36.042969 0 65.261719 29.21875 65.261719 65.261719zm0 0" fill="#ff3445"/><path d="m289.730469 334.011719c-9.769531 5.816406-21.179688 9.167969-33.378907 9.167969-12.203124 0-23.613281-3.351563-33.382812-9.167969.03125-.0625.0625-.132813.089844-.191407.03125-.070312.0625-.148437.101562-.21875.148438-.3125.308594-.621093.46875-.921874.042969-.070313.070313-.128907.101563-.191407.160156-.308593.339843-.628906.519531-.9375.03125-.050781.058594-.101562.089844-.140625.179687-.320312.371094-.640625.570312-.949218.019532-.03125.050782-.070313.070313-.109376.199219-.320312.410156-.640624.628906-.953124.019531-.027344.039063-.058594.0625-.078126.207031-.320312.449219-.640624.667969-.960937.019531-.007813.03125-.03125.050781-.050781.238281-.320313.480469-.628906.730469-.949219.007812-.007813.007812-.007813.019531-.019531.269531-.320313.53125-.640625.789063-.949219h.011718c1.757813-2.050781 3.777344-3.871094 6.007813-5.441406 2.230469-1.558594 4.679687-2.878907 7.3125-3.878907.089843-.03125.199219-.082031.289062-.121093l1.550781-.570313h26.5l1.546876.570313c.101562.039062.203124.089843.300781.121093 5.25 2.007813 9.78125 5.238282 13.3125 9.320313h.007812c.261719.308594.53125.628906.789063.9375.011718.023437.011718.03125.019531.042969.25.308594.5.617187.730469.949218.019531.007813.03125.03125.042968.039063.238282.320313.457032.640625.6875.960937.019532.019532.039063.050782.0625.078126.207032.3125.417969.632812.628907.953124.007812.039063.039062.078126.058593.109376.199219.308593.402344.628906.582032.949218.019531.050782.050781.101563.078125.148438.179687.3125.359375.621094.53125.929687.03125.0625.058593.132813.089843.191407.160157.308593.320313.609374.46875.921874.039063.070313.070313.148438.109376.226563.03125.0625.0625.121094.082031.183594zm0 0" fill="#fff"/><path d="m289.730469 334.011719c-9.769531 5.816406-21.179688 9.167969-33.378907 9.167969v-26.800782h13.25l1.546876.570313c.101562.039062.203124.089843.300781.121093 5.25 2.007813 9.78125 5.238282 13.3125 9.320313h.007812c.261719.308594.53125.628906.789063.9375.011718.023437.011718.03125.019531.042969.25.308594.5.617187.730469.949218.019531.007813.03125.03125.042968.039063.238282.320313.457032.640625.6875.960937.019532.019532.039063.050782.0625.078126.207032.3125.417969.632812.628907.953124.007812.039063.039062.078126.058593.109376.199219.308593.402344.628906.582032.949218.019531.050782.050781.101563.078125.148438.179687.3125.359375.621094.53125.929687.03125.0625.058593.132813.089843.191407.160157.308593.320313.609374.46875.921874.039063.070313.070313.148438.109376.226563.03125.0625.0625.121094.082031.183594zm0 0" fill="#d0f6ff"/><path d="m256.351562 322.65625-5.375 4.207031 2.800782 2.800781h2.574218zm0 0" fill="#474f6f"/><path d="m256.351562 322.65625 5.375 4.207031-2.800781 2.800781h-2.574219zm0 0" fill="#323b5a"/><path d="m256.347656 329.671875v13.507813c-2.109375 0-4.199218-.101563-6.25-.308594l3.679688-13.199219zm0 0" fill="#323b5a"/><path d="m262.597656 342.871094c-2.046875.207031-4.136718.308594-6.25.308594v-13.507813h2.570313zm0 0" fill="#20273a"/><path d="m243.101562 316.378906 4.535157 13.101563 8.714843-6.824219v-8.21875l-9.804687-1.984375zm0 0" fill="#d0f6ff"/><path d="m269.601562 316.378906-4.53125 13.101563-8.71875-6.824219v-8.21875l9.757813-2.105469zm0 0" fill="#8fc9f7"/><path d="m256.351562 322.65625c-5.414062 0-9.804687-4.390625-9.804687-9.808594v-20.539062h19.609375v20.539062c0 5.417969-4.386719 9.808594-9.804688 9.808594zm0 0" fill="#e3835a"/><path d="m227.699219 277.769531c-3.894531 0-7.050781 3.15625-7.050781 7.050781 0 5.417969 4.394531 9.8125 9.8125 9.8125h4.445312v-16.707031c.003906 0-6.765625-.15625-7.207031-.15625zm0 0" fill="#ffa87a"/><path d="m285.003906 277.769531c3.894532 0 7.050782 3.15625 7.050782 7.050781 0 5.417969-4.394532 9.8125-9.816407 9.8125h-4.445312v-16.707031s6.769531-.15625 7.210937-.15625zm0 0" fill="#cc5a28"/><path d="m282.847656 280.519531c0 7.449219-1.789062 14.472657-4.960937 20.679688-4.144531 8.085937-12.464844 13.183593-21.535157 13.238281h-.160156c-9.140625 0-17.53125-5.101562-21.695312-13.238281-3.183594-6.207031-4.972656-13.230469-4.972656-20.679688 0-1.863281.113281-3.691406.332031-5.496093.066406-.59375.152343-1.1875.246093-1.769532 2.390626-14.84375 14.339844-22.234375 26.25-22.15625 1.574219.007813 3.136719.148438 4.6875.421875 3.710938.640625 7.300782 2.023438 10.433594 4.164063 5.394532 3.652344 9.511719 9.519531 10.800782 17.570312.292968 1.84375.492187 3.726563.546874 5.648438.027344.535156.027344 1.074218.027344 1.617187zm0 0" fill="#ffa87a"/><path d="m282.847656 280.519531c0 7.449219-1.789062 14.472657-4.960937 20.679688-4.144531 8.085937-12.464844 13.183593-21.535157 13.238281v-63.339844c1.574219.007813 3.136719.148438 4.6875.421875 3.710938.640625 7.300782 2.023438 10.433594 4.164063 5.394532 3.652344 9.511719 9.519531 10.800782 17.570312.292968 1.84375.492187 3.726563.546874 5.648438.027344.535156.027344 1.074218.027344 1.617187zm0 0" fill="#ea824e"/><path d="m273.074219 250.058594c-1.84375 12.375-7.53125 21.375-16.722657 26.433594-4.011718 2.222656-8.691406 3.679687-14.011718 4.339843-4.773438.59375-10.019532.007813-14.394532-1.902343-1.386718-.601563-2.214843-2.050782-2.0625-3.550782 0-.007812.007813-.019531.007813-.027344 2.230469-20.761718 16.355469-31.222656 30.460937-31.035156 1.496094.007813 3.003907.152344 4.484376.414063 4.320312.746093 8.519531 2.515625 12.238281 5.328125zm0 0" fill="#474f6f"/><path d="m273.074219 250.058594c-1.84375 12.375-7.53125 21.375-16.722657 26.433594v-32.175782c1.496094.007813 3.003907.152344 4.484376.414063 4.320312.746093 8.519531 2.515625 12.238281 5.328125zm0 0" fill="#323b5a"/><path d="m283.054688 279.933594c-19.417969-.101563-25.410157-16.851563-22.21875-35.207032 11.730468 2.035157 22.546874 11.609376 25.410156 28.902344.160156.957032.265625 1.695313.347656 2.386719.242188 2.101563-1.421875 3.925781-3.539062 3.917969zm0 0" fill="#323b5a"/><path d="m185.949219 413.351562c0 33.347657-25.007813 60.847657-57.289063 64.777344-28.230468-16.21875-53.070312-37.660156-73.210937-63.007812-.007813-.589844-.019531-1.179688-.019531-1.769532 0-36.042968 29.21875-65.261718 65.261718-65.261718 36.039063 0 65.257813 29.21875 65.257813 65.261718zm0 0" fill="#65b2ff"/><path d="m154.070312 469.441406c-7.609374 4.539063-16.21875 7.570313-25.429687 8.679688-10.929687-6.28125-21.351563-13.351563-31.191406-21.132813.28125-.207031.5625-.410156.839843-.609375 2.230469-1.558594 4.679688-2.878906 7.3125-3.878906.089844-.03125.199219-.078125.289063-.121094l1.550781-.570312h26.5l1.546875.570312c.101563.042969.203125.089844.300781.121094 5.25 2.011719 9.78125 5.238281 13.3125 9.320312h.007813c.261719.308594.53125.628907.789063.941407.011718.019531.011718.027343.023437.039062.25.308594.5.621094.726563.949219.023437.011719.03125.03125.042968.039062.238282.320313.457032.640626.6875.960938.019532.019531.042969.050781.0625.078125.207032.3125.417969.632813.628906.953125.019532.039062.039063.078125.058594.109375.199219.308594.402344.640625.582032.949219.027343.050781.050781.101562.078124.148437.179688.3125.359376.621094.53125.933594.03125.058594.058594.128906.089844.1875.160156.3125.320313.609375.46875.921875.042969.078125.070313.148438.109375.230469.03125.058593.0625.117187.082031.179687zm0 0" fill="#fff"/><path d="m154.070312 469.441406c-7.609374 4.539063-16.21875 7.570313-25.429687 8.679688-2.679687-1.542969-5.332031-3.132813-7.949219-4.769532v-21.542968h13.25l1.546875.570312c.101563.042969.203125.089844.300781.121094 5.25 2.011719 9.78125 5.238281 13.3125 9.320312h.007813c.261719.308594.53125.628907.789063.941407.011718.019531.011718.027343.023437.039062.25.308594.5.621094.726563.949219.023437.011719.03125.03125.042968.039062.238282.320313.457032.640626.6875.960938.019532.019531.042969.050781.0625.078125.207032.3125.417969.632813.628906.953125.019532.039062.039063.078125.058594.109375.199219.308594.402344.640625.582032.949219.027343.050781.050781.101562.078124.148437.179688.3125.359376.621094.53125.933594.03125.058594.058594.128906.089844.1875.160156.3125.320313.609375.46875.921875.042969.078125.070313.148438.109375.230469.03125.058593.0625.117187.082031.179687zm0 0" fill="#d0f6ff"/><path d="m120.695312 458.085938-5.375 4.207031 2.800782 2.804687h2.574218zm0 0" fill="#474f6f"/><path d="m120.695312 458.085938 5.375 4.207031-2.800781 2.804687h-2.574219zm0 0" fill="#323b5a"/><path d="m120.691406 473.351562v-8.25h-2.570312l-1.570313 5.617188zm0 0" fill="#323b5a"/><path d="m120.691406 473.351562v-8.25h2.570313l3.289062 11.789063zm0 0" fill="#20273a"/><path d="m107.445312 451.808594 4.53125 13.101562 8.714844-6.824218v-8.21875l-9.804687-1.984376zm0 0" fill="#d0f6ff"/><path d="m133.941406 451.808594-4.53125 13.101562-8.71875-6.824218v-8.21875l9.761719-2.105469zm0 0" fill="#8fc9f7"/><path d="m120.691406 458.085938c-5.414062 0-9.804687-4.390626-9.804687-9.808594v-20.539063h19.609375v20.539063c.003906 5.417968-4.386719 9.808594-9.804688 9.808594zm0 0" fill="#e3835a"/><path d="m92.039062 413.199219c-3.890624 0-7.050781 3.15625-7.050781 7.050781 0 5.421875 4.394531 9.8125 9.816407 9.8125h4.445312v-16.707031s-6.769531-.15625-7.210938-.15625zm0 0" fill="#ffa87a"/><path d="m149.34375 413.199219c3.894531 0 7.050781 3.15625 7.050781 7.050781 0 5.421875-4.390625 9.8125-9.8125 9.8125h-4.445312v-16.707031s6.765625-.15625 7.207031-.15625zm0 0" fill="#cc5a28"/><path d="m147.1875 415.953125c0 7.445313-1.789062 14.472656-4.960938 20.675781-4.140624 8.089844-12.464843 13.183594-21.535156 13.238282h-.160156c-9.140625 0-17.53125-5.101563-21.695312-13.238282-3.183594-6.203125-4.972657-13.230468-4.972657-20.675781 0-1.863281.113281-3.691406.332031-5.5.066407-.59375.148438-1.1875.242188-1.769531 2.394531-14.839844 14.34375-22.230469 26.253906-22.15625 1.570313.007812 3.136719.152344 4.6875.421875 3.710938.640625 7.300782 2.027343 10.433594 4.164062 5.394531 3.652344 9.511719 9.519531 10.800781 17.570313.292969 1.84375.488281 3.726562.546875 5.648437.027344.535157.027344 1.074219.027344 1.621094zm0 0" fill="#ffa87a"/><path d="m147.1875 415.953125c0 7.445313-1.789062 14.472656-4.960938 20.675781-4.140624 8.089844-12.464843 13.183594-21.535156 13.238282v-63.339844c1.574219.007812 3.136719.152344 4.691406.421875 3.707032.640625 7.296876 2.027343 10.429688 4.164062 5.398438 3.652344 9.511719 9.519531 10.800781 17.570313.292969 1.84375.492188 3.726562.546875 5.648437.027344.535157.027344 1.074219.027344 1.621094zm0 0" fill="#ea824e"/><path d="m137.414062 385.492188c-1.84375 12.371093-7.53125 21.371093-16.722656 26.429687-4.011718 2.222656-8.691406 3.683594-14.011718 4.339844-4.773438.59375-10.019532.011719-14.394532-1.902344-1.386718-.601563-2.214844-2.050781-2.0625-3.546875 0-.011719.007813-.019531.007813-.03125 2.234375-20.761719 16.355469-31.222656 30.460937-31.035156 1.496094.011718 3.003906.152344 4.484375.414062 4.320313.746094 8.519531 2.515625 12.238281 5.332032zm0 0" fill="#474f6f"/><path d="m137.414062 385.492188c-1.84375 12.371093-7.53125 21.371093-16.722656 26.429687v-32.175781c1.496094.011718 3.003906.152344 4.484375.414062 4.320313.746094 8.519531 2.515625 12.238281 5.332032zm0 0" fill="#323b5a"/><path d="m147.394531 415.363281c-19.414062-.101562-25.410156-16.851562-22.21875-35.207031 11.730469 2.035156 22.546875 11.609375 25.414063 28.902344.15625.957031.265625 1.695312.34375 2.386718.242187 2.101563-1.421875 3.925782-3.539063 3.917969zm0 0" fill="#323b5a"/><path d="m457.269531 413.351562c0 .289063 0 .589844-.007812.878907-12.410157 15.757812-26.640625 30.03125-42.363281 42.5-6.070313 4.808593-12.359376 9.347656-18.859376 13.597656-1.328124.882813-2.679687 1.742187-4.027343 2.59375-1.890625 1.1875-3.800781 2.347656-5.722657 3.476563-.949218.5625-1.898437 1.121093-2.847656 1.652343-31.992187-4.191406-56.691406-31.5625-56.691406-64.699219 0-36.042968 29.21875-65.261718 65.261719-65.261718 36.039062 0 65.257812 29.21875 65.257812 65.261718zm0 0" fill="#b5e237"/><path d="m414.898438 456.730469c-6.070313 4.808593-12.359376 9.347656-18.859376 13.597656-1.328124.882813-2.679687 1.742187-4.027343 2.59375-1.890625 1.1875-3.800781 2.347656-5.722657 3.476563-.949218.5625-1.898437 1.121093-2.847656 1.652343-8.972656-1.179687-17.371094-4.179687-24.8125-8.609375.03125-.0625.0625-.132812.089844-.191406.03125-.070312.0625-.140625.101562-.21875.148438-.3125.308594-.621094.46875-.921875.039063-.070313.070313-.128906.089844-.1875.171875-.3125.351563-.632813.53125-.941406.03125-.050781.058594-.101563.089844-.140625.179688-.308594.371094-.640625.570312-.949219.019532-.03125.050782-.070313.070313-.109375.199219-.320312.410156-.640625.628906-.953125.019531-.027344.039063-.058594.050781-.078125.21875-.320312.460938-.640625.679688-.960938.019531-.007812.03125-.027343.050781-.050781.230469-.316406.480469-.628906.730469-.949219.007812-.007812.007812-.007812.019531-.019531.269531-.320312.527344-.640625.789063-.949219h.011718c1.757813-2.050781 3.777344-3.871093 6.007813-5.441406 2.230469-1.558594 4.679687-2.878906 7.3125-3.878906.089844-.03125.199219-.078125.289063-.121094l1.550781-.570312h26.5l1.546875.570312c.101562.042969.203125.089844.300781.121094 2.820313 1.078125 5.429687 2.511719 7.789063 4.230469zm0 0" fill="#fff"/><path d="m414.898438 456.730469c-6.070313 4.808593-12.359376 9.347656-18.859376 13.597656-1.328124.882813-2.679687 1.742187-4.027343 2.59375v-21.113281h13.25l1.546875.570312c.101562.042969.203125.089844.300781.121094 2.820313 1.078125 5.429687 2.511719 7.789063 4.230469zm0 0" fill="#d0f6ff"/><path d="m392.015625 458.085938-5.378906 4.207031 2.804687 2.804687h2.574219zm0 0" fill="#474f6f"/><path d="m392.015625 458.085938 5.375 4.207031-2.804687 2.804687h-2.570313zm0 0" fill="#323b5a"/><path d="m392.011719 465.101562v7.820313c-1.890625 1.1875-3.800781 2.347656-5.722657 3.476563l3.152344-11.296876zm0 0" fill="#323b5a"/><path d="m396.039062 470.328125c-1.328124.882813-2.679687 1.742187-4.027343 2.59375v-7.820313h2.566406zm0 0" fill="#20273a"/><path d="m378.761719 451.808594 4.53125 13.101562 8.71875-6.824218v-8.21875l-9.808594-1.984376zm0 0" fill="#d0f6ff"/><path d="m405.261719 451.808594-4.535157 13.101562-8.714843-6.824218v-8.21875l9.757812-2.105469zm0 0" fill="#8fc9f7"/><path d="m392.011719 458.085938c-5.417969 0-9.808594-4.390626-9.808594-9.808594v-20.539063h19.613281v20.539063c0 5.417968-4.390625 9.808594-9.804687 9.808594zm0 0" fill="#e3835a"/><path d="m363.359375 413.199219c-3.894531 0-7.050781 3.15625-7.050781 7.050781 0 5.421875 4.394531 9.8125 9.8125 9.8125h4.449218v-16.707031s-6.769531-.15625-7.210937-.15625zm0 0" fill="#ffa87a"/><path d="m420.664062 413.199219c3.894532 0 7.050782 3.15625 7.050782 7.050781 0 5.421875-4.394532 9.8125-9.8125 9.8125h-4.449219v-16.707031s6.769531-.15625 7.210937-.15625zm0 0" fill="#cc5a28"/><path d="m418.507812 415.953125c0 7.445313-1.789062 14.472656-4.960937 20.675781-4.144531 8.089844-12.46875 13.183594-21.535156 13.238282h-.160157c-9.140624 0-17.53125-5.101563-21.695312-13.238282-3.179688-6.203125-4.96875-13.230468-4.96875-20.675781 0-1.863281.113281-3.691406.328125-5.5.066406-.59375.148437-1.1875.246094-1.769531 2.390625-14.839844 14.339843-22.230469 26.25-22.15625 1.574219.007812 3.136719.152344 4.6875.421875 3.710937.640625 7.296875 2.027343 10.433593 4.164062 5.394532 3.652344 9.511719 9.519531 10.800782 17.570313.292968 1.84375.492187 3.726562.546875 5.648437.027343.535157.027343 1.074219.027343 1.621094zm0 0" fill="#ffa87a"/><path d="m418.507812 415.953125c0 7.445313-1.789062 14.472656-4.960937 20.675781-4.144531 8.089844-12.46875 13.183594-21.535156 13.238282v-63.339844c1.574219.007812 3.136719.152344 4.6875.421875 3.710937.640625 7.296875 2.027343 10.433593 4.164062 5.394532 3.652344 9.511719 9.519531 10.800782 17.570313.292968 1.84375.492187 3.726562.546875 5.648437.027343.535157.027343 1.074219.027343 1.621094zm0 0" fill="#ea824e"/><path d="m408.734375 385.492188c-1.84375 12.371093-7.535156 21.371093-16.722656 26.429687-4.011719 2.222656-8.691407 3.683594-14.011719 4.339844-4.773438.59375-10.019531.011719-14.398438-1.902344-1.382812-.601563-2.210937-2.050781-2.0625-3.546875 0-.011719.011719-.019531.011719-.03125 2.230469-20.761719 16.355469-31.222656 30.460938-31.035156 1.496093.011718 3.003906.152344 4.480469.414062 4.324218.746094 8.523437 2.515625 12.242187 5.332032zm0 0" fill="#474f6f"/><path d="m408.734375 385.492188c-1.84375 12.371093-7.535156 21.371093-16.722656 26.429687v-32.175781c1.496093.011718 3.003906.152344 4.480469.414062 4.324218.746094 8.523437 2.515625 12.242187 5.332032zm0 0" fill="#323b5a"/><path d="m418.714844 415.363281c-19.417969-.101562-25.410156-16.851562-22.21875-35.207031 11.730468 2.035156 22.546875 11.609375 25.410156 28.902344.160156.957031.265625 1.695312.347656 2.386718.242188 2.101563-1.425781 3.925782-3.539062 3.917969zm0 0" fill="#323b5a"/><path d="m185.953125 142.492188c0 36.042968-29.21875 65.261718-65.261719 65.261718-36.042968 0-65.261718-29.21875-65.261718-65.261718 0-36.039063 29.21875-65.257813 65.261718-65.257813 36.042969 0 65.261719 29.21875 65.261719 65.257813zm0 0" fill="#ffe955"/><path d="m154.070312 198.578125c-8.082031 4.8125-17.28125 7.941406-27.128906 8.863281-2.050781.207032-4.140625.308594-6.25.308594-2.113281 0-4.203125-.101562-6.25-.308594-9.851562-.921875-19.050781-4.050781-27.132812-8.863281.03125-.058594.0625-.128906.089844-.1875.03125-.070313.0625-.152344.101562-.21875.148438-.3125.308594-.621094.46875-.921875.042969-.070312.070312-.128906.101562-.191406.167969-.308594.339844-.628906.519532-.9375.03125-.050782.058594-.101563.089844-.140625.179687-.320313.371093-.640625.570312-.949219.019531-.03125.050781-.070312.070312-.109375.210938-.320313.410157-.640625.628907-.953125.019531-.027344.039062-.058594.0625-.089844.207031-.320312.449219-.628906.667969-.949218.019531-.007813.03125-.03125.050781-.050782.238281-.320312.480469-.628906.738281-.949218 0-.007813 0-.007813.011719-.019532.269531-.320312.53125-.640625.789062-.949218h.011719c1.769531-2.050782 3.777344-3.871094 6.007812-5.441407 2.230469-1.558593 4.679688-2.878906 7.3125-3.878906.089844-.03125.199219-.082031.289063-.121094l1.550781-.570312h26.5l1.546875.570312c.101563.039063.203125.089844.300781.121094 5.25 2.007813 9.78125 5.238281 13.3125 9.320313h.007813c.261719.308593.53125.628906.789063.9375.011718.023437.011718.03125.023437.042968.25.308594.5.617188.726563.949219.023437.007813.03125.03125.042968.039063.238282.320312.457032.628906.6875.949218.019532.03125.042969.0625.0625.089844.207032.3125.417969.632812.628906.953125.019532.039063.039063.078125.058594.109375.199219.308594.402344.628906.582032.949219.027343.050781.050781.097656.078124.148437.179688.3125.359376.621094.53125.929688.03125.0625.058594.132812.089844.191406.160156.308594.320313.609375.46875.921875.042969.066406.070313.148437.109375.226563.03125.0625.0625.121093.082031.179687zm0 0" fill="#fff"/><path d="m154.070312 198.578125c-9.769531 5.820313-21.179687 9.171875-33.378906 9.171875v-26.800781h13.25l1.546875.570312c.101563.039063.203125.089844.300781.121094 5.25 2.007813 9.78125 5.238281 13.3125 9.320313h.007813c.261719.308593.53125.628906.789063.9375.011718.023437.011718.03125.023437.042968.25.308594.5.617188.726563.949219.023437.007813.03125.03125.042968.039063.238282.320312.457032.628906.6875.949218.019532.03125.042969.0625.0625.089844.207032.3125.417969.632812.628906.953125.019532.039063.039063.078125.058594.109375.199219.308594.402344.628906.582032.949219.027343.050781.050781.097656.078124.148437.179688.3125.359376.621094.53125.929688.03125.0625.058594.132812.089844.191406.160156.308594.320313.609375.46875.921875.042969.066406.070313.148437.109375.226563.03125.0625.0625.121093.082031.179687zm0 0" fill="#d0f6ff"/><path d="m120.691406 187.226562-5.375 4.207032 2.800782 2.800781h2.574218zm0 0" fill="#474f6f"/><path d="m120.691406 187.226562 5.375 4.207032-2.800781 2.800781h-2.574219zm0 0" fill="#323b5a"/><path d="m120.691406 194.238281v13.511719c-2.113281 0-4.203125-.101562-6.25-.308594l3.679688-13.203125zm0 0" fill="#323b5a"/><path d="m126.941406 207.441406c-2.050781.207032-4.140625.308594-6.25.308594v-13.511719h2.570313zm0 0" fill="#20273a"/><path d="m107.445312 180.945312 4.53125 13.105469 8.714844-6.824219v-8.21875l-9.804687-1.984374zm0 0" fill="#d0f6ff"/><path d="m133.941406 180.945312-4.53125 13.105469-8.71875-6.824219v-8.21875l9.761719-2.105468zm0 0" fill="#8fc9f7"/><path d="m120.691406 187.226562c-5.414062 0-9.804687-4.390624-9.804687-9.808593v-20.539063h19.609375v20.539063c.003906 5.417969-4.386719 9.808593-9.804688 9.808593zm0 0" fill="#e3835a"/><path d="m92.039062 142.339844c-3.890624 0-7.050781 3.15625-7.050781 7.050781 0 5.417969 4.394531 9.8125 9.816407 9.8125h4.445312v-16.710937s-6.769531-.152344-7.210938-.152344zm0 0" fill="#ffa87a"/><path d="m149.34375 142.339844c3.894531 0 7.050781 3.15625 7.050781 7.050781 0 5.417969-4.390625 9.8125-9.8125 9.8125h-4.445312v-16.710937s6.765625-.152344 7.207031-.152344zm0 0" fill="#cc5a28"/><path d="m147.1875 145.089844c0 7.449218-1.789062 14.472656-4.960938 20.679687-4.140624 8.085938-12.464843 13.179688-21.535156 13.238281h-.160156c-9.140625 0-17.53125-5.105468-21.695312-13.238281-3.183594-6.207031-4.972657-13.230469-4.972657-20.679687 0-1.863282.113281-3.691406.332031-5.496094.066407-.59375.148438-1.1875.242188-1.773438 2.394531-14.839843 14.34375-22.230468 26.253906-22.15625 1.570313.011719 3.136719.152344 4.6875.425782 3.710938.640625 7.300782 2.023437 10.433594 4.164062 5.394531 3.652344 9.511719 9.519532 10.800781 17.566406.292969 1.847657.488281 3.730469.546875 5.652344.027344.535156.027344 1.074219.027344 1.617188zm0 0" fill="#ffa87a"/><path d="m147.1875 145.089844c0 7.449218-1.789062 14.472656-4.960938 20.679687-4.140624 8.085938-12.464843 13.179688-21.535156 13.238281v-63.34375c1.574219.011719 3.136719.152344 4.691406.425782 3.707032.640625 7.296876 2.023437 10.429688 4.164062 5.398438 3.652344 9.511719 9.519532 10.800781 17.566406.292969 1.847657.492188 3.730469.546875 5.652344.027344.535156.027344 1.074219.027344 1.617188zm0 0" fill="#ea824e"/><path d="m137.414062 114.628906c-1.84375 12.375-7.53125 21.375-16.722656 26.433594-4.011718 2.21875-8.691406 3.679688-14.011718 4.339844-4.773438.59375-10.019532.007812-14.394532-1.902344-1.386718-.601562-2.214844-2.054688-2.0625-3.550781 0-.007813.007813-.019531.007813-.027344 2.234375-20.761719 16.355469-31.222656 30.460937-31.035156 1.496094.007812 3.003906.152343 4.484375.414062 4.320313.746094 8.519531 2.515625 12.238281 5.328125zm0 0" fill="#474f6f"/><path d="m137.414062 114.628906c-1.84375 12.375-7.53125 21.375-16.722656 26.433594v-32.175781c1.496094.007812 3.003906.148437 4.484375.414062 4.320313.746094 8.519531 2.515625 12.238281 5.328125zm0 0" fill="#323b5a"/><path d="m147.394531 144.5c-19.414062-.097656-25.410156-16.847656-22.21875-35.203125 11.730469 2.035156 22.546875 11.609375 25.414063 28.902344.15625.953125.265625 1.691406.34375 2.386719.242187 2.101562-1.421875 3.925781-3.539063 3.914062zm0 0" fill="#323b5a"/><path d="m457.273438 142.492188c0 36.042968-29.21875 65.261718-65.261719 65.261718s-65.261719-29.21875-65.261719-65.261718c0-36.039063 29.21875-65.257813 65.261719-65.257813s65.261719 29.21875 65.261719 65.257813zm0 0" fill="#9e69e2"/><path d="m425.390625 198.578125c-9.769531 5.820313-21.179687 9.171875-33.378906 9.171875-12.203125 0-23.613281-3.351562-33.382813-9.171875.03125-.058594.0625-.128906.089844-.1875.03125-.070313.0625-.152344.101562-.21875.148438-.3125.308594-.621094.46875-.921875.039063-.070312.070313-.128906.089844-.191406.171875-.308594.351563-.628906.53125-.9375.03125-.050782.058594-.101563.089844-.140625.179688-.320313.371094-.640625.570312-.949219.019532-.03125.050782-.070312.070313-.109375.199219-.320313.410156-.640625.628906-.953125.019531-.027344.039063-.058594.050781-.089844.21875-.320312.460938-.628906.679688-.949218.019531-.007813.03125-.03125.050781-.050782.230469-.320312.480469-.628906.730469-.949218.007812-.007813.007812-.007813.019531-.019532.269531-.320312.527344-.640625.789063-.949218h.011718c1.757813-2.050782 3.777344-3.871094 6.007813-5.441407 2.230469-1.558593 4.679687-2.878906 7.3125-3.878906.089844-.03125.199219-.082031.289063-.121094l1.550781-.570312h26.5l1.546875.570312c.101562.039063.203125.089844.300781.121094 5.25 2.007813 9.78125 5.238281 13.3125 9.320313h.007813c.261718.308593.53125.628906.789062.9375.011719.023437.011719.03125.019531.042968.25.308594.5.617188.730469.949219.019531.007813.03125.03125.042969.039063.238281.320312.457031.628906.6875.949218.019531.03125.039062.0625.050781.089844.21875.3125.429688.632812.640625.953125.007813.039063.039063.078125.058594.109375.199219.308594.402343.628906.582031.949219.019531.050781.046875.097656.078125.148437.179687.3125.359375.621094.53125.929688.03125.0625.058594.132812.089844.191406.160156.308594.320312.609375.46875.921875.039062.066406.070312.148437.109375.226563.03125.0625.0625.121093.082031.179687zm0 0" fill="#fff"/><path d="m425.390625 198.578125c-9.769531 5.820313-21.179687 9.171875-33.378906 9.171875v-26.800781h13.25l1.546875.570312c.101562.039063.203125.089844.300781.121094 5.25 2.007813 9.78125 5.238281 13.3125 9.320313h.007813c.261718.308593.53125.628906.789062.9375.011719.023437.011719.03125.019531.042968.25.308594.5.617188.730469.949219.019531.007813.03125.03125.042969.039063.238281.320312.457031.628906.6875.949218.019531.03125.039062.0625.050781.089844.21875.3125.429688.632812.640625.953125.007813.039063.039063.078125.058594.109375.199219.308594.402343.628906.582031.949219.019531.050781.046875.097656.078125.148437.179687.3125.359375.621094.53125.929688.03125.0625.058594.132812.089844.191406.160156.308594.320312.609375.46875.921875.039062.066406.070312.148437.109375.226563.03125.0625.0625.121093.082031.179687zm0 0" fill="#d0f6ff"/><path d="m392.011719 187.226562-5.375 4.207032 2.800781 2.800781h2.574219zm0 0" fill="#474f6f"/><path d="m392.011719 187.226562 5.375 4.207032-2.800781 2.800781h-2.574219zm0 0" fill="#323b5a"/><path d="m392.007812 194.238281v13.511719c-2.109374 0-4.199218-.101562-6.25-.308594l3.679688-13.203125zm0 0" fill="#323b5a"/><path d="m398.257812 207.441406c-2.046874.207032-4.140624.308594-6.25.308594v-13.511719h2.570313zm0 0" fill="#20273a"/><path d="m378.761719 180.945312 4.53125 13.105469 8.71875-6.824219v-8.21875l-9.808594-1.984374zm0 0" fill="#d0f6ff"/><path d="m405.261719 180.945312-4.535157 13.105469-8.714843-6.824219v-8.21875l9.757812-2.105468zm0 0" fill="#8fc9f7"/><path d="m392.011719 187.226562c-5.417969 0-9.808594-4.390624-9.808594-9.808593v-20.539063h19.613281v20.539063c0 5.417969-4.390625 9.808593-9.804687 9.808593zm0 0" fill="#e3835a"/><path d="m363.359375 142.339844c-3.894531 0-7.050781 3.15625-7.050781 7.050781 0 5.417969 4.394531 9.8125 9.8125 9.8125h4.449218v-16.710937s-6.769531-.152344-7.210937-.152344zm0 0" fill="#ffa87a"/><path d="m420.664062 142.339844c3.894532 0 7.050782 3.15625 7.050782 7.050781 0 5.417969-4.394532 9.8125-9.8125 9.8125h-4.449219v-16.710937s6.769531-.152344 7.210937-.152344zm0 0" fill="#cc5a28"/><path d="m418.507812 145.089844c0 7.449218-1.789062 14.472656-4.960937 20.679687-4.144531 8.085938-12.46875 13.179688-21.535156 13.238281h-.160157c-9.140624 0-17.53125-5.105468-21.695312-13.238281-3.179688-6.207031-4.96875-13.230469-4.96875-20.679687 0-1.863282.113281-3.691406.328125-5.496094.066406-.59375.148437-1.1875.246094-1.773438 2.390625-14.839843 14.339843-22.230468 26.25-22.15625 1.574219.011719 3.136719.152344 4.6875.425782 3.710937.640625 7.296875 2.023437 10.433593 4.164062 5.394532 3.652344 9.511719 9.519532 10.800782 17.566406.292968 1.847657.492187 3.730469.546875 5.652344.027343.535156.027343 1.074219.027343 1.617188zm0 0" fill="#ffa87a"/><path d="m418.507812 145.089844c0 7.449218-1.789062 14.472656-4.960937 20.679687-4.144531 8.085938-12.46875 13.179688-21.535156 13.238281v-63.34375c1.574219.011719 3.136719.152344 4.6875.425782 3.710937.640625 7.296875 2.023437 10.433593 4.164062 5.394532 3.652344 9.511719 9.519532 10.800782 17.566406.292968 1.847657.492187 3.730469.546875 5.652344.027343.535156.027343 1.074219.027343 1.617188zm0 0" fill="#ea824e"/><path d="m408.734375 114.628906c-1.84375 12.375-7.535156 21.375-16.722656 26.433594-4.011719 2.21875-8.691407 3.679688-14.011719 4.339844-4.773438.59375-10.019531.007812-14.398438-1.902344-1.382812-.601562-2.210937-2.054688-2.0625-3.550781 0-.007813.011719-.019531.011719-.027344 2.230469-20.761719 16.355469-31.222656 30.460938-31.035156 1.496093.007812 3.003906.152343 4.480469.414062 4.324218.746094 8.523437 2.515625 12.242187 5.328125zm0 0" fill="#474f6f"/><g fill="#323b5a"><path d="m408.734375 114.628906c-1.84375 12.375-7.535156 21.375-16.722656 26.433594v-32.175781c1.496093.007812 3.003906.148437 4.480469.414062 4.324218.746094 8.523437 2.515625 12.242187 5.328125zm0 0"/><path d="m418.714844 144.5c-19.417969-.097656-25.410156-16.847656-22.21875-35.203125 11.730468 2.035156 22.546875 11.609375 25.410156 28.902344.160156.953125.265625 1.691406.347656 2.386719.242188 2.101562-1.425781 3.925781-3.539062 3.914062zm0 0"/></g></svg>