<svg height="512pt" viewBox="0 0 512 512" width="512pt" xmlns="http://www.w3.org/2000/svg"><path d="m512 256c0 141.386719-114.613281 256-256 256s-256-114.613281-256-256 114.613281-256 256-256 256 114.613281 256 256zm0 0" fill="#68fcdf"/><path d="m512 256c0 141.378906-114.621094 256-256 256s-256-114.621094-256-256c0-46.21875 12.25-89.570312 33.679688-127 44.121093 77.070312 127.160156 129 222.320312 129s178.210938-51.929688 222.320312-129c21.429688 37.429688 33.679688 80.78125 33.679688 127zm0 0" fill="#10e2c4"/><path d="m481.261719 377.699219v.011719c-43.292969 79.96875-127.941407 134.289062-225.261719 134.289062s-181.96875-54.320312-225.261719-134.289062v-.011719zm0 0" fill="#1aba9f"/><path d="m428.019531 445.570312c-13.96875 12.691407-29.347656 23.851563-45.871093 33.21875-36.867188 20.941407-79.449219 32.972657-124.808594 33.199219-.449219.011719-.890625.011719-1.339844.011719-45.871094 0-88.929688-12.070312-126.160156-33.210938-16.519532-9.367187-31.898438-20.527343-45.859375-33.21875zm0 0" fill="#474f6f"/><path d="m428.019531 445.570312c-45.140625 41-104.988281 66.089844-170.679687 66.417969-.449219.011719-.890625.011719-1.339844.011719v-66.429688zm0 0" fill="#323b5a"/><path d="m86.960938 185.453125h338.078124v259.910156h-338.078124zm0 0" fill="#8fc9f7"/><path d="m256 185.453125h169.039062v259.910156h-169.039062zm0 0" fill="#65b2ff"/><path d="m425.039062 166.523438v248.941406h-338.078124v-248.941406c0-11.886719 9.636718-21.523438 21.519531-21.523438h295.039062c11.882813 0 21.519531 9.636719 21.519531 21.523438zm0 0" fill="#d0f6ff"/><path d="m425.039062 166.523438v200.902343l-48.039062 48.039063h-290.039062v-248.941406c0-11.886719 9.636718-21.523438 21.523437-21.523438h295.03125c11.886719 0 21.523437 9.636719 21.523437 21.523438zm0 0" fill="#fff"/><path d="m425.039062 166.523438v200.902343l-48.039062 48.039063h-121v-270.464844h147.515625c11.886719 0 21.523437 9.636719 21.523437 21.523438zm0 0" fill="#d0f6ff"/><path d="m377.003906 415.464844 48.035156-48.039063h-48.035156zm0 0" fill="#8fc9f7"/><path d="m425.039062 166.523438v52.464843h-338.078124v-52.464843c0-11.886719 9.636718-21.523438 21.523437-21.523438h295.03125c11.886719 0 21.523437 9.636719 21.523437 21.523438zm0 0" fill="#ff3445"/><path d="m425.039062 166.523438v52.464843h-169.039062v-73.988281h147.515625c11.886719 0 21.523437 9.636719 21.523437 21.523438zm0 0" fill="#dd1265"/><path d="m254.769531 335.523438c0 19.597656-16.308593 33.332031-41.632812 33.332031-15.59375 0-31.757813-5.292969-41.917969-13.304688l13.160156-25.179687c8.011719 9.300781 16.738282 14.023437 26.039063 14.023437 7.867187 0 11.875-2.863281 11.875-8.726562 0-5.867188-4.007813-8.871094-11.875-8.871094h-18.742188v-17.167969l19.027344-18.3125h-34.050781v-24.035156h73.25v18.601562l-23.316406 20.742188 4.574218 1.003906c13.738282 3 23.609375 12.875 23.609375 27.894532zm0 0" fill="#323b5a"/><path d="m321.582031 267.140625v100.285156h-33.191406v-74.105469h-17.453125v-26.183593h50.644531zm0 0" fill="#20273a"/><path d="m217.066406 179.429688c0 11.804687-9.574218 21.378906-21.382812 21.378906-11.804688 0-21.378906-9.574219-21.378906-21.378906 0-11.808594 9.574218-21.382813 21.378906-21.382813 11.808594 0 21.382812 9.574219 21.382812 21.382813zm0 0" fill="#fff"/><path d="m217.066406 179.429688c0 11.804687-9.574218 21.378906-21.382812 21.378906v-42.757813c11.808594 0 21.382812 9.570313 21.382812 21.378907zm0 0" fill="#d0f6ff"/><path d="m203.914062 179.429688c0 4.542968-3.683593 8.230468-8.230468 8.230468-4.542969 0-8.230469-3.6875-8.230469-8.230468 0-4.546876 3.6875-8.234376 8.230469-8.234376 4.546875 0 8.230468 3.6875 8.230468 8.234376zm0 0" fill="#8fc9f7"/><path d="m337.695312 179.429688c0 11.804687-9.574218 21.378906-21.382812 21.378906-11.804688 0-21.378906-9.574219-21.378906-21.378906 0-11.808594 9.574218-21.382813 21.378906-21.382813 11.808594 0 21.382812 9.574219 21.382812 21.382813zm0 0" fill="#fff"/><path d="m337.695312 179.429688c0 11.804687-9.574218 21.378906-21.382812 21.378906v-42.757813c11.808594 0 21.382812 9.570313 21.382812 21.378907zm0 0" fill="#d0f6ff"/><path d="m324.546875 179.429688c0 4.542968-3.6875 8.230468-8.234375 8.230468-4.542969 0-8.230469-3.6875-8.230469-8.230468 0-4.546876 3.6875-8.234376 8.230469-8.234376 4.546875 0 8.234375 3.6875 8.234375 8.234376zm0 0" fill="#8fc9f7"/></svg>